name C:\Users\u0101727\Documents\MyRepositories\predictivesimulations\OpenSimModel\subject1\EMG\EMG_gait_64.mot
datacolumns 25
datarows 7
range 0.00100000 0.00700000
endheader
time	HamL_r	TA_r	PerL_r	GL_r	HamM_r	Sol_r	VL_r	VM_r	PerB_l	TA_l	PerL_l	GL_l	GM_l	Sol_l	VL_l	VM_l	AddL_l	RF_l	TFL_l	GluMed_l	HamL_l	HamM_l	GluMed_r	RF_r	
          0.00100000	          0.00100000	          0.00100000	          0.00100000	          0.00105256	          0.00150829	          0.00190427	          0.00185506	          0.00123681	          0.00396944	          0.00322524	          0.00585317	          0.00211206	          0.00100000	          0.00147841	          0.00100000	          0.00191343	          0.00100000	          0.00100000	          0.00254400	          0.00375076	          0.00100000	          0.00521626	          0.00100000	          0.00201160	
          0.00200000	          0.00100000	          0.00100000	          0.00100000	          0.00114735	          0.00166211	          0.00515876	          0.00204647	          0.00134023	          0.00434123	          0.00498651	          0.00631368	          0.00240720	          0.00100000	          0.00179005	          0.00100000	          0.00251923	          0.00100000	          0.00114061	          0.00293635	          0.00398944	          0.00100000	          0.00642757	          0.00100000	          0.00281844	
          0.00300000	          0.00100000	          0.00100000	          0.00100000	          0.00124274	          0.00181643	          0.00837880	          0.00224082	          0.00144462	          0.00471497	          0.00675387	          0.00677943	          0.00270470	          0.00133625	          0.00210521	          0.00100000	          0.00313387	          0.00100000	          0.00145468	          0.00333409	          0.00423279	          0.00100000	          0.00766734	          0.00100000	          0.00362659	
          0.00400000	          0.00100000	          0.00100000	          0.00100000	          0.00133842	          0.00197078	          0.01155086	          0.00243734	          0.00154964	          0.00508915	          0.00852150	          0.00724870	          0.00300374	          0.00193507	          0.00242295	          0.00100000	          0.00375631	          0.00100175	          0.00176929	          0.00373633	          0.00448020	          0.00100000	          0.00893117	          0.00100000	          0.00443400	
          0.00500000	          0.00115981	          0.00100000	          0.00100000	          0.00143408	          0.00212470	          0.01466265	          0.00263537	          0.00165495	          0.00546242	          0.01028398	          0.00771981	          0.00330357	          0.00253083	          0.00274242	          0.00113739	          0.00438556	          0.00145893	          0.00208366	          0.00414222	          0.00473105	          0.00100000	          0.01021688	          0.00100000	          0.00523861	
          0.00600000	          0.00131754	          0.00100000	          0.00100000	          0.00152942	          0.00227772	          0.01770372	          0.00283440	          0.00176024	          0.00583357	          0.01203658	          0.00819116	          0.00360352	          0.00312208	          0.00306288	          0.00177066	          0.00502061	          0.00191009	          0.00239711	          0.00455092	          0.00498475	          0.00100000	          0.01152365	          0.00100000	          0.00603838	
          0.00700000	          0.00147167	          0.00100000	          0.00100000	          0.00162412	          0.00242934	          0.02066513	          0.00303403	          0.00186518	          0.00620146	          0.01377547	          0.00866132	          0.00390290	          0.00370747	          0.00338364	          0.00238933	          0.00566049	          0.00235424	          0.00270902	          0.00496160	          0.00524068	          0.00100000	          0.01285109	          0.00100000	          0.00683141	
